Coordinates
version=1
nRows=36
nColumns=33
inDegrees=yes

Units are S.I. units (second, meters, Newtons, ...)
Angles are in degrees.

endheader
time	ground_thorax_rot_x	ground_thorax_rot_y	ground_thorax_rot_z	ground_thorax_tx	ground_thorax_ty	ground_thorax_tz	clav_prot_r	clav_elev_r	scapula_abduction_r	scapula_elevation_r	scapula_upward_rot_r	scapula_winging_r	shoulder_elv_r	plane_of_elev_r	axial_rot_r	elbow_flexion_r	pro_sup_r	wrist_flex_r	wrist_dev_r	clav_prot_l	clav_elev_l	scapula_abduction_l	scapula_elevation_l	scapula_upward_rot_l	scapula_winging_l	shoulder_elv_l	plane_of_elev_l	axial_rot_l	elbow_flexion_l	pro_sup_l	wrist_flex_l	wrist_dev_l	
3.0800	-0.152715	12.153434	1.217653	-0.192360	0.998261	0.013337	-18.922136	-15.302994	-26.856629	-8.784722	2.454194	6.854984	53.966782	-29.157770	33.541991	74.862855	-4.496566	-3.140627	12.319816	1.258971	-6.769219	-3.896853	-3.234831	-8.578052	-0.653348	54.354019	-23.071935	-13.646222	80.415273	5.840164	12.591491	3.090442	
3.0900	-0.173855	12.210772	1.252892	-0.192355	0.998132	0.013342	-18.795058	-15.439714	-26.673732	-8.876538	2.365537	6.950314	53.617790	-28.408885	33.040097	73.660761	-4.776589	-3.709349	12.847814	1.458889	-6.954337	-4.178847	-3.190427	-8.874814	-0.645199	54.493878	-22.071654	-13.286492	79.555909	5.686994	13.248933	3.808842	
3.1000	-0.196675	12.262811	1.303758	-0.192333	0.997997	0.013338	-18.660239	-15.571473	-26.477418	-8.964030	2.279078	7.042227	53.277410	-27.685453	32.560333	72.432066	-5.020865	-4.238734	13.370067	1.669081	-7.135137	-4.481547	-3.146820	-9.163172	-0.626955	54.624786	-21.080491	-12.947922	78.632407	5.550164	13.906387	4.503069	
3.1100	-0.220017	12.310886	1.335886	-0.192289	0.997854	0.013323	-18.521148	-15.704542	-26.272792	-9.053498	2.194915	7.134192	52.934032	-26.962310	32.075124	71.168986	-5.242013	-4.733066	13.894688	1.889122	-7.313934	-4.803307	-3.102911	-9.445674	-0.600198	54.750910	-20.065771	-12.597892	77.642717	5.423527	14.573087	5.186436	
3.1200	-0.245500	12.358232	1.374063	-0.192228	0.997702	0.013300	-18.379245	-15.829256	-26.063558	-9.135566	2.112540	7.220690	52.590406	-26.251634	31.598774	69.874464	-5.448258	-5.185976	14.425882	2.123724	-7.486574	-5.146943	-3.069130	-9.738011	-0.564348	54.884128	-19.036888	-12.254612	76.590464	5.306528	15.258573	5.861856	
3.1300	-0.270782	12.404165	1.385618	-0.192146	0.997545	0.013263	-18.236755	-15.957089	-25.850824	-9.222408	2.034743	7.307842	52.241772	-25.535308	31.115819	68.543065	-5.640562	-5.600457	14.957188	2.370643	-7.660111	-5.510406	-3.037068	-10.035692	-0.521395	55.025797	-17.975896	-11.896264	75.478133	5.198847	15.954806	6.529410	
3.1400	-0.294196	12.443525	1.387093	-0.192039	0.997408	0.013216	-18.093331	-16.095222	-25.631445	-9.322216	1.965128	7.399322	51.899737	-24.837096	30.651898	67.182936	-5.806216	-5.961421	15.458742	2.626131	-7.841637	-5.892963	-2.993388	-10.322536	-0.471417	55.168636	-16.925404	-11.557311	74.307397	5.112715	16.623587	7.155375	
3.1500	-0.314222	12.473082	1.374887	-0.191904	0.997303	0.013160	-17.946106	-16.249848	-25.399441	-9.441316	1.904981	7.498530	51.571518	-24.162427	30.220451	65.803097	-5.942032	-6.279854	15.913730	2.884068	-8.038692	-6.289638	-2.923052	-10.579501	-0.416613	55.303427	-15.907675	-11.249386	73.084528	5.050932	17.238217	7.728436	
3.1600	-0.335499	12.497690	1.377643	-0.191755	0.997195	0.013101	-17.798057	-16.390498	-25.162560	-9.550527	1.854737	7.587378	51.236445	-23.497787	29.811434	64.395935	-6.066338	-6.555621	16.360715	3.153689	-8.227580	-6.709463	-2.855500	-10.824376	-0.348238	55.437959	-14.911538	-10.988638	71.805545	4.999801	17.840217	8.258770	
3.1700	-0.354261	12.514715	1.385873	-0.191592	0.997091	0.013036	-17.645740	-16.523489	-24.913769	-9.656316	1.815833	7.669375	50.904950	-22.844484	29.436134	62.972358	-6.175894	-6.807247	16.788089	3.430840	-8.415309	-7.148225	-2.779630	-11.046299	-0.268929	55.564389	-13.945747	-10.773588	70.478203	4.956660	18.416062	8.749249	
3.1800	-0.367462	12.521649	1.382135	-0.191413	0.996981	0.012973	-17.492576	-16.646964	-24.657192	-9.758355	1.791858	7.742889	50.568152	-22.180949	29.076137	61.532149	-6.276905	-7.032896	17.204394	3.718008	-8.597197	-7.608944	-2.701003	-11.248160	-0.176319	55.683826	-12.988901	-10.585458	69.091793	4.912417	18.978984	9.205466	
3.1900	-0.371730	12.514529	1.360969	-0.191212	0.996889	0.012910	-17.334568	-16.778249	-24.383948	-9.873520	1.783767	7.817910	50.248008	-21.527986	28.758588	60.091920	-6.354114	-7.234480	17.575786	4.008265	-8.787777	-8.085316	-2.599019	-11.413050	-0.075299	55.784122	-12.066219	-10.424153	67.651462	4.870039	19.495516	9.612961	
3.2000	-0.371781	12.501329	1.320977	-0.191001	0.996775	0.012854	-17.177797	-16.892996	-24.107721	-9.977719	1.789213	7.880339	49.915279	-20.850449	28.446520	58.637740	-6.433830	-7.416511	17.953647	4.313364	-8.964228	-8.586749	-2.507876	-11.572019	0.041281	55.881063	-11.124576	-10.262196	66.148500	4.806178	20.031918	10.004637	
3.2100	-0.368104	12.476974	1.293267	-0.190771	0.996679	0.012799	-17.014971	-17.009685	-23.816454	-10.086960	1.804177	7.941686	49.604567	-20.204162	28.197032	57.192672	-6.494712	-7.580646	18.291469	4.623784	-9.144622	-9.103179	-2.403118	-11.706839	0.166321	55.959477	-10.231738	-10.132210	64.601266	4.734628	20.536791	10.355568	
3.2200	-0.363312	12.440812	1.273936	-0.190524	0.996601	0.012759	-16.846643	-17.127890	-23.512534	-10.199794	1.825697	8.002006	49.308071	-19.581152	27.997804	55.753521	-6.547103	-7.729096	18.599140	4.939617	-9.326212	-9.634118	-2.287486	-11.817996	0.300243	56.021614	-9.382013	-10.028067	63.007595	4.653202	21.017538	10.672204	
3.2300	-0.360096	12.401453	1.280669	-0.190269	0.996511	0.012723	-16.676904	-17.226312	-23.202723	-10.297042	1.857553	8.047760	49.009612	-18.971372	27.844475	54.303352	-6.612226	-7.849917	18.900018	5.268526	-9.489503	-10.190355	-2.181686	-11.912182	0.453660	56.059445	-8.562065	-9.947981	61.366244	4.535852	21.501720	10.943394	
3.2400	-0.359218	12.362166	1.299986	-0.190012	0.996398	0.012694	-16.508155	-17.302397	-22.891705	-10.376086	1.898953	8.077597	48.696431	-18.356195	27.710113	52.832619	-6.701017	-7.948861	19.215757	5.614098	-9.629407	-10.774495	-2.094893	-11.999791	0.628083	56.083180	-7.747181	-9.880106	59.682151	4.384848	22.006373	11.187852	
3.2500	-0.356469	12.329337	1.317287	-0.189752	0.996260	0.012666	-16.346091	-17.357865	-22.586082	-10.440881	1.955506	8.092279	48.363341	-17.725933	27.577830	51.331874	-6.821665	-8.018797	19.546709	5.981240	-9.744626	-11.396295	-2.026851	-12.077389	0.829061	56.089122	-6.924718	-9.814961	57.959004	4.192228	22.526850	11.395521	
3.2600	-0.348981	12.293293	1.317718	-0.189474	0.996143	0.012646	-16.183403	-17.425435	-22.274694	-10.520009	2.019240	8.112759	48.037342	-17.107912	27.456026	49.824506	-6.949110	-8.079729	19.856986	6.356985	-9.862895	-12.038229	-1.945703	-12.129982	1.041773	56.085173	-6.131990	-9.771503	56.217927	4.000176	23.009969	11.577122	
3.2700	-0.331494	12.260095	1.277464	-0.189180	0.996024	0.012628	-16.026622	-17.496262	-21.965984	-10.607647	2.096858	8.133091	47.702996	-16.471530	27.307723	48.296521	-7.099967	-8.122624	20.164555	6.745893	-9.974015	-12.707299	-1.861500	-12.159203	1.272305	56.069737	-5.331136	-9.731423	54.454335	3.794674	23.472352	11.730010	
3.2800	-0.307782	12.219403	1.221111	-0.188862	0.995951	0.012617	-15.863498	-17.592676	-21.644090	-10.720030	2.174952	8.168429	47.391570	-15.869286	27.168548	46.777377	-7.247061	-8.167974	20.434040	7.132405	-10.099963	-13.379797	-1.749910	-12.155526	1.504784	56.045271	-4.585529	-9.736039	52.698989	3.619434	23.861457	11.860038	
3.2900	-0.279419	12.172191	1.162608	-0.188522	0.995917	0.012611	-15.697013	-17.706006	-21.316022	-10.848031	2.251099	8.214151	47.095236	-15.301737	27.032210	45.267515	-7.394520	-8.212845	20.672260	7.514672	-10.234825	-14.050185	-1.619713	-12.126972	1.738072	56.006405	-3.893397	-9.778460	50.957829	3.469470	24.185989	11.965751	
3.3000	-0.252260	12.109964	1.130614	-0.188163	0.995941	0.012615	-15.517531	-17.841622	-20.970195	-10.992666	2.315071	8.274256	46.828932	-14.800309	26.928509	43.786510	-7.523825	-8.269760	20.863834	7.882375	-10.385812	-14.700108	-1.465280	-12.076223	1.962055	55.954911	-3.292488	-9.882552	49.249963	3.369382	24.427491	12.053889	
3.3100	-0.223437	12.041522	1.108064	-0.187798	0.995979	0.012625	-15.334388	-17.974908	-20.619384	-11.134128	2.376963	8.332556	46.565300	-14.319460	26.823791	42.317277	-7.655619	-8.320910	21.041370	8.245061	-10.530420	-15.341528	-1.313374	-12.017613	2.187660	55.888159	-2.723291	-10.010512	47.560552	3.286975	24.633811	12.121539	
3.3200	-0.196587	11.977715	1.097172	-0.187437	0.995993	0.012644	-15.152297	-18.083005	-20.268244	-11.253847	2.446790	8.373029	46.280287	-13.841426	26.702930	40.847049	-7.812545	-8.339886	21.221545	8.616953	-10.645012	-15.998229	-1.186365	-11.953609	2.434221	55.795404	-2.158325	-10.151169	45.879873	3.201922	24.810584	12.139300	
3.3300	-0.170966	11.922936	1.087839	-0.187080	0.995981	0.012673	-14.976536	-18.166769	-19.924162	-11.353973	2.527393	8.396286	45.972840	-13.359678	26.566080	39.385467	-7.985996	-8.327535	21.403409	9.002128	-10.729683	-16.675704	-1.086776	-11.890213	2.703472	55.684075	-1.584354	-10.292292	44.213326	3.112169	24.967420	12.113225	
3.3400	-0.145644	11.878053	1.072835	-0.186727	0.995946	0.012712	-14.806420	-18.231908	-19.585029	-11.440380	2.619792	8.405589	45.651505	-12.877006	26.422004	37.942403	-8.165477	-8.289089	21.579734	9.400908	-10.788098	-17.375085	-1.010577	-11.825944	2.995004	55.560409	-1.002575	-10.440086	42.568372	3.024455	25.101408	12.048214	
3.3500	-0.118058	11.847166	1.035760	-0.186374	0.995900	0.012758	-14.646202	-18.289667	-19.256956	-11.524343	2.724106	8.408735	45.326622	-12.394888	26.269419	36.531438	-8.333828	-8.232274	21.737113	9.813032	-10.829468	-18.097093	-0.947689	-11.756960	3.306606	55.431363	-0.410117	-10.593914	40.949868	2.949872	25.204875	11.950393	
3.3600	-0.090166	11.830381	0.980706	-0.186023	0.995844	0.012813	-14.496405	-18.338825	-18.941532	-11.604331	2.839301	8.405251	44.997584	-11.914260	26.113766	35.155336	-8.491742	-8.159292	21.880696	10.237418	-10.851737	-18.839410	-0.900840	-11.685262	3.637681	55.299740	0.190408	-10.758224	39.365885	2.883719	25.286356	11.822502	
3.3700	-0.063620	11.814736	0.926455	-0.185668	0.995827	0.012874	-14.349286	-18.405786	-18.632273	-11.699605	2.948206	8.414324	44.699765	-11.476972	25.996828	33.848626	-8.599258	-8.106088	21.984176	10.653331	-10.884173	-19.565679	-0.845225	-11.615013	3.961339	55.183596	0.745285	-10.960965	37.849361	2.860934	25.333812	11.701341	
3.3800	-0.036515	11.792830	0.874237	-0.185306	0.995864	0.012939	-14.200033	-18.497813	-18.323494	-11.814975	3.045092	8.441299	44.446096	-11.089073	25.928053	32.617301	-8.652623	-8.084037	22.047676	11.047228	-10.937236	-20.252852	-0.771451	-11.546360	4.263139	55.089075	1.240637	-11.214505	36.411971	2.887925	25.350804	11.600923	
3.3900	-0.007816	11.770795	0.816464	-0.184941	0.995938	0.013007	-14.053329	-18.602944	-18.021208	-11.940948	3.135362	8.478131	44.223257	-10.733089	25.885704	31.448552	-8.670853	-8.077017	22.083737	11.422643	-10.999966	-20.907578	-0.688495	-11.477377	4.550009	55.008633	1.697746	-11.513350	35.043514	2.952817	25.339595	11.502714	
3.4000	0.017753	11.764972	0.754138	-0.184584	0.995992	0.013080	-13.922007	-18.685682	-17.741826	-12.049012	3.234565	8.500516	43.986577	-10.375663	25.833575	30.314167	-8.697889	-8.038741	22.122136	11.798734	-11.033382	-21.562473	-0.631839	-11.409814	4.851513	54.920881	2.163347	-11.851324	33.720638	3.023862	25.301058	11.345590	
3.4100	0.039628	11.771514	0.689621	-0.184237	0.996031	0.013158	-13.804278	-18.751696	-17.483066	-12.143792	3.340446	8.512313	43.742664	-10.025203	25.783173	29.222682	-8.730048	-7.977697	22.158840	12.173330	-11.040650	-22.213470	-0.599475	-11.345663	5.164202	54.829770	2.626945	-12.230957	32.457299	3.111046	25.230928	11.142006	
3.4200	0.058225	11.788318	0.624533	-0.183902	0.996061	0.013242	-13.699668	-18.805426	-17.245105	-12.228716	3.450510	8.516849	43.497522	-9.688207	25.740019	28.181424	-8.766546	-7.900360	22.190814	12.543765	-11.025756	-22.855766	-0.588442	-11.286418	5.484029	54.736821	3.080888	-12.655750	31.264506	3.227207	25.122169	10.903177	
3.4300	0.076794	11.809908	0.552725	-0.183579	0.996097	0.013327	-13.604544	-18.856171	-17.023657	-12.311028	3.559957	8.520749	43.264669	-9.368823	25.707025	27.198791	-8.807891	-7.821892	22.215607	12.903574	-10.999410	-23.478584	-0.588990	-11.231030	5.800880	54.646016	3.515593	-13.123372	30.156608	3.394555	24.968839	10.662210	
